<?xml version="1.0" standalone="no"?>
<!DOCTYPE svg PUBLIC "-//W3C//DTD SVG 20010904//EN"
 "http://www.w3.org/TR/2001/REC-SVG-20010904/DTD/svg10.dtd">
<svg version="1.0" xmlns="http://www.w3.org/2000/svg"
 width="1264.000000pt" height="1264.000000pt" viewBox="0 0 1264.000000 1264.000000"
 preserveAspectRatio="xMidYMid meet">
<metadata>
Created by potrace 1.11, written by Peter Selinger 2001-2013
</metadata>
<g transform="translate(0.000000,1264.000000) scale(0.100000,-0.100000)"
fill="#000000" stroke="none">
<path d="M1699 10736 c-2 -3 -25 -7 -49 -10 -25 -3 -60 -10 -79 -15 -18 -6
-36 -10 -40 -9 -3 0 -8 -1 -11 -2 -6 -2 -28 -7 -60 -14 -14 -3 -46 -10 -71
-16 -26 -6 -55 -13 -65 -15 -11 -2 -19 -4 -19 -5 0 -1 -7 -3 -15 -5 -37 -8
-235 -58 -340 -86 -128 -33 -141 -37 -170 -44 -28 -7 -42 -11 -150 -40 -52
-15 -102 -28 -110 -30 -8 -2 -34 -10 -57 -19 -24 -8 -43 -13 -43 -11 0 2 -16
-3 -35 -11 -19 -8 -38 -13 -42 -12 -5 0 -15 -1 -23 -5 -8 -3 -53 -18 -100 -33
-47 -15 -107 -36 -133 -47 l-48 -21 5 -56 c2 -30 7 -66 10 -80 3 -14 8 -38 10
-55 3 -16 8 -43 11 -60 16 -80 37 -182 41 -195 5 -21 33 -151 38 -175 2 -11 9
-40 15 -65 7 -25 14 -56 17 -70 3 -14 9 -41 14 -60 5 -19 11 -46 14 -60 3 -14
9 -42 15 -62 5 -20 6 -39 3 -42 -3 -4 -1 -6 4 -6 5 0 10 -8 10 -17 1 -22 42
-190 231 -943 80 -316 146 -582 148 -590 19 -76 54 -208 59 -220 3 -8 8 -28
11 -45 7 -36 9 -44 18 -70 3 -11 8 -31 11 -45 3 -14 17 -68 31 -120 15 -52 29
-106 32 -120 7 -35 9 -43 16 -60 3 -8 9 -28 13 -45 4 -16 8 -34 10 -40 2 -5 5
-20 8 -32 3 -13 19 -76 36 -140 29 -106 36 -136 43 -168 2 -5 6 -16 10 -22 5
-7 6 -13 4 -13 -3 0 6 -37 20 -82 13 -46 25 -92 27 -103 2 -11 16 -65 31 -120
15 -55 29 -107 30 -115 2 -8 4 -17 6 -20 1 -3 3 -9 4 -15 1 -5 4 -17 8 -25 4
-12 34 -121 52 -192 3 -10 7 -26 10 -35 2 -10 14 -54 25 -98 11 -44 24 -87 27
-95 7 -18 10 -28 16 -55 3 -11 10 -40 17 -65 7 -25 13 -49 14 -55 1 -5 10 -37
20 -70 10 -33 19 -67 21 -76 2 -9 13 -49 25 -89 12 -40 23 -81 25 -90 2 -9 12
-48 24 -86 11 -38 27 -94 35 -124 8 -30 26 -95 41 -145 15 -49 28 -97 30 -105
2 -8 13 -46 25 -85 22 -72 27 -91 34 -125 3 -11 8 -25 11 -30 4 -6 8 -22 11
-35 2 -14 15 -60 28 -103 13 -42 39 -124 56 -182 18 -58 39 -125 47 -150 8
-25 16 -52 18 -60 2 -8 16 -49 30 -90 14 -41 28 -82 30 -90 10 -41 68 -166
101 -217 57 -88 155 -202 240 -282 77 -72 183 -151 203 -151 6 0 11 -4 11 -10
0 -5 6 -10 14 -10 8 0 16 -4 18 -9 6 -15 189 -102 217 -103 26 0 126 17 126
22 0 1 12 3 26 5 14 2 43 8 65 14 21 5 50 12 64 15 14 3 59 14 100 26 41 11
86 22 100 24 14 3 47 12 75 20 27 8 51 13 53 11 3 -2 12 0 22 5 9 5 30 12 46
15 39 8 59 13 59 15 0 1 7 3 15 5 52 11 298 76 405 106 39 11 81 22 95 25 14
3 54 14 89 25 34 10 75 21 90 25 37 7 56 12 56 14 0 1 7 3 15 5 8 2 24 6 35 9
23 5 293 80 343 95 18 5 35 10 37 10 3 1 6 1 8 2 1 0 9 2 17 4 33 8 58 15 110
30 30 9 73 21 95 26 22 6 87 24 145 41 58 16 112 32 120 33 8 2 55 15 103 29
49 15 96 28 105 30 9 2 24 6 32 9 8 3 85 24 170 47 85 23 182 51 216 61 33 11
69 21 80 24 20 4 95 25 254 70 52 15 102 29 110 30 8 2 29 9 45 15 36 13 340
99 373 106 13 2 42 11 65 18 23 8 69 22 102 31 33 9 71 21 85 25 14 4 52 16
85 25 33 9 67 19 75 22 8 4 18 5 23 5 4 -1 23 4 42 13 20 8 39 14 43 15 14 1
88 22 132 37 25 8 54 17 65 19 11 2 31 8 45 13 24 9 128 39 160 46 8 2 83 25
165 50 83 26 173 54 200 62 68 19 68 19 85 25 72 26 145 46 152 42 4 -3 8 0 8
5 0 6 8 11 19 11 10 0 35 7 55 15 20 8 36 13 36 10 0 -3 17 3 38 13 20 11 43
17 50 15 6 -3 12 0 12 6 0 6 3 10 8 9 9 -3 76 19 119 38 17 8 35 14 40 14 23
2 179 240 156 240 -3 0 -1 6 5 13 14 17 61 174 54 181 -3 3 0 6 7 6 7 0 10 3
8 7 -3 5 1 40 9 80 42 225 36 541 -16 743 -5 19 -11 52 -14 72 -2 21 -7 42
-11 47 -3 6 -8 23 -10 38 -7 50 -15 88 -22 103 -6 13 -8 24 -12 61 -1 15 -49
9 -173 -24 -32 -8 -58 -13 -58 -10 0 3 -7 0 -15 -7 -8 -7 -15 -10 -15 -7 0 3
-15 1 -32 -4 -18 -6 -40 -12 -48 -14 -8 -1 -35 -8 -60 -15 -25 -7 -57 -14 -73
-16 -15 -2 -32 -6 -37 -9 -9 -6 -180 -51 -225 -60 -11 -2 -20 -4 -20 -5 0 -1
-7 -3 -15 -5 -45 -12 -107 -27 -120 -30 -8 -2 -16 -4 -17 -5 -2 -2 -7 -3 -12
-4 -5 0 -12 -4 -16 -8 -4 -4 -13 -4 -21 -1 -8 3 -14 0 -14 -7 0 -6 -4 -9 -8
-6 -4 2 -100 -20 -212 -50 -113 -30 -214 -56 -225 -58 -11 -3 -20 -5 -20 -7 0
-1 -9 -3 -20 -5 -23 -3 -232 -59 -255 -68 -8 -3 -26 -8 -40 -10 -14 -3 -74
-19 -135 -36 -60 -17 -119 -32 -130 -34 -11 -3 -20 -5 -20 -6 0 -1 -7 -3 -15
-5 -8 -1 -85 -21 -170 -44 -85 -23 -163 -43 -175 -46 -11 -2 -21 -4 -22 -6 -2
-1 -6 -2 -10 -3 -5 -1 -17 -5 -28 -9 -11 -3 -31 -8 -45 -11 -14 -3 -50 -12
-80 -21 -30 -9 -62 -17 -70 -19 -8 -2 -78 -21 -155 -41 -77 -20 -147 -38 -155
-40 -8 -2 -15 -4 -15 -5 0 -1 -7 -3 -15 -5 -8 -2 -53 -13 -100 -26 -47 -12
-92 -23 -100 -24 -8 -1 -22 -5 -30 -8 -13 -5 -52 -16 -200 -53 -8 -2 -33 -8
-55 -14 -22 -6 -51 -13 -65 -16 -14 -3 -38 -9 -55 -14 -42 -12 -114 -31 -137
-35 -11 -2 -29 -7 -41 -11 -12 -5 -26 -8 -32 -9 -12 0 -113 -24 -135 -31 -8
-3 -16 -5 -17 -5 -2 0 -17 -5 -35 -10 -18 -5 -46 -12 -63 -15 -16 -2 -38 -7
-47 -10 -9 -3 -25 -7 -35 -9 -10 -2 -45 -11 -78 -19 -33 -9 -73 -19 -90 -22
-16 -2 -39 -8 -50 -11 -11 -4 -27 -8 -35 -9 -8 -1 -42 -9 -75 -17 -33 -9 -62
-14 -64 -11 -2 2 -9 0 -15 -5 -6 -5 -27 -12 -46 -15 -19 -3 -46 -8 -60 -11
-14 -3 -34 -8 -45 -10 -11 -3 -31 -7 -45 -10 -14 -4 -36 -8 -50 -11 -14 -2
-38 -8 -55 -11 -16 -4 -34 -8 -40 -9 -5 -1 -13 -3 -17 -4 -5 -1 -16 -3 -25 -4
-28 -4 -115 -17 -144 -22 -23 -4 -28 0 -44 38 -9 24 -18 50 -20 58 -2 9 -14
49 -28 90 -14 41 -28 91 -32 110 -4 19 -11 41 -15 50 -7 13 -34 103 -46 148
-6 27 -31 110 -59 202 -14 47 -28 96 -31 109 -5 26 -49 177 -58 201 -3 8 -7
26 -10 40 -2 14 -14 54 -25 90 -11 36 -27 90 -35 120 -8 30 -23 82 -32 115 -9
33 -17 65 -19 70 -1 6 -4 17 -7 25 -3 8 -16 53 -28 100 -12 47 -26 96 -31 110
-5 14 -10 34 -12 45 -2 11 -6 27 -10 35 -6 16 -61 217 -73 265 -4 17 -8 35
-10 40 -9 30 -106 382 -109 395 -2 8 -8 29 -15 45 -6 17 -11 31 -10 33 3 3
-49 199 -58 222 -3 8 -7 22 -8 30 -1 8 -16 65 -34 125 -17 61 -33 118 -35 127
-6 29 -37 142 -42 158 -4 8 -8 24 -10 35 -6 29 -8 34 -26 95 -9 30 -18 64 -20
75 -2 11 -7 27 -10 35 -7 20 -17 59 -23 95 -4 17 -9 32 -13 35 -5 3 -8 12 -8
20 0 8 -22 92 -48 185 -40 146 -58 214 -69 260 -10 40 -29 105 -38 128 -6 15
-12 36 -13 45 -1 9 -4 24 -7 32 -9 22 -60 218 -60 227 0 4 -4 13 -10 20 -5 7
-7 16 -4 21 3 5 -1 20 -9 35 -8 15 -12 27 -10 27 1 0 -4 21 -12 48 -8 26 -16
54 -18 62 -1 8 -10 42 -19 75 -10 33 -24 87 -32 120 -9 33 -18 67 -22 75 -3 8
-7 20 -7 25 -1 6 -5 17 -8 25 -5 12 -50 172 -61 215 -1 6 -10 37 -19 70 -10
33 -22 78 -28 100 -6 22 -14 47 -17 55 -3 8 -7 24 -9 35 -2 11 -6 27 -10 35
-3 8 -7 22 -9 30 -2 8 -14 49 -27 90 -14 41 -27 86 -30 100 -5 21 -13 26 -40
28 -18 1 -35 0 -38 -2z"/>
<path d="M9918 9555 c-2 -1 -32 -5 -68 -9 -91 -10 -132 -15 -156 -21 -12 -2
-39 -7 -60 -11 -63 -10 -348 -71 -484 -104 -69 -16 -134 -32 -145 -34 -11 -2
-65 -16 -120 -31 -55 -14 -110 -28 -122 -31 -13 -2 -100 -25 -195 -50 -95 -25
-184 -47 -197 -50 -13 -3 -32 -9 -43 -15 -10 -5 -18 -8 -18 -5 0 3 -15 0 -32
-5 -18 -6 -44 -12 -58 -15 -14 -3 -64 -16 -111 -30 -47 -13 -96 -27 -108 -29
-11 -3 -30 -7 -41 -9 -11 -3 -24 -7 -28 -10 -5 -3 -22 -8 -38 -11 -16 -3 -63
-14 -104 -26 -85 -23 -324 -87 -355 -95 -11 -3 -27 -7 -35 -9 -8 -2 -15 -4
-15 -5 0 -1 -11 -3 -25 -6 -14 -2 -32 -7 -40 -11 -8 -3 -24 -8 -35 -10 -27 -5
-136 -34 -155 -40 -8 -4 -19 -7 -25 -8 -5 -2 -46 -13 -90 -25 -195 -52 -246
-66 -284 -74 -16 -4 -92 -25 -201 -56 -81 -24 -447 -122 -469 -126 -14 -3 -28
-7 -33 -10 -4 -3 -18 -7 -29 -9 -28 -6 -129 -34 -149 -42 -8 -3 -24 -7 -36 -8
-12 -1 -30 -5 -40 -10 -10 -4 -23 -9 -29 -10 -11 -3 -149 -40 -205 -56 -19 -5
-42 -11 -50 -13 -8 -2 -42 -11 -75 -20 -33 -10 -67 -19 -75 -21 -8 -2 -15 -4
-15 -5 0 -1 -7 -3 -15 -5 -17 -3 -99 -26 -180 -50 -30 -9 -66 -18 -80 -21 -14
-3 -38 -9 -55 -15 -32 -10 -453 -130 -470 -133 -5 -1 -43 -12 -83 -25 -40 -13
-78 -24 -85 -25 -7 -1 -16 -4 -22 -8 -5 -3 -24 -9 -42 -13 -22 -4 -46 -23 -73
-55 -50 -60 -139 -201 -164 -260 -10 -25 -22 -54 -27 -65 -10 -21 -12 -31 -29
-125 -26 -149 -32 -209 -35 -360 -2 -74 -4 -139 -5 -145 -1 -5 -1 -12 0 -15 1
-3 3 -52 5 -110 2 -58 6 -121 8 -140 13 -95 19 -137 23 -155 16 -79 24 -106
45 -150 l24 -50 50 1 c65 1 152 11 163 18 5 3 24 8 43 10 49 7 91 16 114 23
11 4 22 7 25 8 3 1 28 5 55 10 53 9 62 11 70 15 3 1 10 4 15 5 6 1 11 3 13 4
1 1 17 4 36 7 19 2 53 9 75 16 23 6 48 12 56 14 34 6 76 15 95 21 11 4 25 8
30 9 45 10 63 14 80 18 17 4 319 80 365 91 8 2 40 11 72 19 31 8 67 18 80 20
12 3 56 14 96 25 39 10 72 17 72 14 0 -3 6 -1 13 5 7 6 26 13 42 16 17 2 30 5
30 6 0 1 9 3 20 5 26 5 240 62 345 92 47 13 94 26 105 28 22 4 54 13 170 45
44 12 86 24 95 25 8 2 15 4 15 5 0 1 9 3 20 6 11 2 61 15 110 29 50 14 97 27
105 29 8 2 42 11 75 20 33 9 68 19 77 21 9 2 51 13 93 25 42 12 84 23 93 25 9
2 38 10 65 18 26 8 47 13 47 11 0 -3 8 0 18 5 11 6 30 12 43 15 13 2 123 31
244 64 121 33 236 63 255 68 41 9 41 9 60 16 8 3 33 10 55 16 22 6 65 18 95
26 30 8 69 18 85 22 17 4 32 8 35 9 30 9 99 28 115 32 37 8 50 11 53 13 1 2 5
3 10 4 4 1 30 8 58 15 29 7 58 13 65 14 8 2 19 5 24 9 8 5 42 14 90 24 6 1 39
10 75 19 36 9 72 19 80 21 17 4 88 23 110 29 80 22 309 78 324 79 25 1 51 -51
101 -199 20 -60 39 -117 42 -125 3 -8 7 -19 8 -25 2 -5 22 -71 45 -145 54
-175 71 -230 76 -249 2 -9 15 -54 29 -101 29 -97 133 -449 146 -497 28 -102
38 -138 43 -160 3 -10 13 -47 24 -83 11 -36 27 -94 37 -130 9 -36 21 -76 26
-90 5 -14 11 -35 13 -47 3 -12 14 -56 26 -98 12 -42 23 -85 25 -96 2 -10 6
-23 9 -27 2 -4 19 -61 36 -127 50 -189 55 -208 162 -600 16 -60 33 -126 38
-145 5 -19 19 -71 31 -115 12 -44 21 -88 21 -97 0 -10 4 -18 10 -18 6 0 9 -3
5 -6 -3 -3 -1 -18 5 -33 5 -14 11 -35 13 -46 2 -11 9 -38 15 -60 6 -22 13 -51
16 -64 3 -14 7 -28 10 -33 3 -5 8 -21 10 -36 3 -15 9 -40 14 -57 20 -63 49
-171 55 -204 3 -19 8 -38 10 -42 4 -5 70 -249 90 -329 2 -8 8 -27 14 -42 6
-16 8 -28 6 -28 -2 0 0 -11 5 -25 5 -14 12 -36 14 -48 3 -12 15 -58 27 -102
11 -44 22 -84 23 -90 2 -5 8 -30 15 -55 7 -25 15 -52 17 -60 1 -8 17 -64 34
-125 16 -60 32 -120 35 -133 2 -13 9 -38 14 -55 8 -25 45 -163 86 -320 11 -38
15 -55 35 -127 20 -71 29 -110 34 -137 1 -7 5 -16 9 -19 4 -4 7 -20 7 -36 0
-15 5 -28 11 -28 6 0 9 -6 6 -12 -4 -14 39 -145 54 -164 5 -6 6 -14 2 -17 -3
-4 -1 -7 5 -7 7 0 12 -6 12 -14 0 -7 17 -32 39 -55 38 -40 40 -41 94 -36 31 2
107 16 169 30 62 15 121 28 132 30 10 3 44 12 75 21 31 9 63 17 71 19 8 2 35
8 60 15 25 7 52 14 60 15 8 2 16 4 18 5 1 2 5 3 10 4 4 2 27 8 52 15 25 7 56
15 70 18 13 2 30 9 37 15 7 6 13 8 13 5 0 -3 12 -2 28 3 39 13 206 64 212 65
49 11 473 150 535 176 17 6 36 13 43 15 7 1 42 16 78 33 62 29 65 32 60 58 -4
16 -8 37 -10 48 -7 34 -62 252 -101 400 -21 77 -38 145 -39 150 -1 6 -5 19 -9
30 -3 11 -9 34 -12 50 -9 47 -10 49 -19 63 -4 7 -5 16 -2 19 3 3 1 12 -5 20
-6 7 -9 13 -5 13 3 0 1 12 -5 28 -6 15 -12 34 -14 42 -2 8 -24 94 -50 190 -26
96 -49 190 -52 208 -3 17 -9 32 -15 32 -5 0 -7 4 -4 9 3 5 2 22 -3 37 -12 41
-27 94 -56 204 -14 52 -32 118 -40 145 -8 28 -17 66 -20 85 -3 19 -11 40 -17
47 -6 7 -8 13 -5 13 3 0 -1 23 -9 52 -9 28 -17 59 -19 67 -2 9 -8 31 -14 49
-5 17 -7 32 -4 32 3 0 0 6 -6 14 -6 7 -13 26 -15 42 -3 16 -14 63 -26 104 -11
41 -23 84 -25 95 -3 11 -11 43 -19 70 -8 28 -18 64 -22 80 -8 33 -8 34 -17 55
-6 16 -18 63 -24 93 -2 10 -14 58 -28 106 -14 49 -27 97 -30 109 -2 12 -11 45
-19 74 -27 90 -98 350 -103 377 -2 13 -6 28 -9 33 -3 4 -7 16 -9 25 -11 49
-80 303 -115 423 -9 31 -46 166 -84 305 -28 101 -55 202 -81 300 -15 55 -30
107 -33 115 -6 19 -10 30 -16 55 -2 11 -25 94 -50 185 -65 235 -67 242 -76
270 -8 25 -14 47 -50 180 -11 41 -25 91 -31 110 -6 19 -12 42 -13 50 -2 8 -6
22 -9 30 -3 8 -13 40 -21 70 -8 30 -27 98 -41 150 -15 52 -32 113 -37 135 -15
59 -15 59 -21 75 -11 27 -48 154 -53 180 -3 14 -17 63 -31 109 -14 47 -26 89
-27 95 -1 6 -4 16 -7 21 -3 6 -12 33 -19 60 -18 73 -50 166 -66 198 -9 15 -13
27 -10 27 3 0 -8 23 -24 50 -17 28 -30 53 -30 56 0 6 -102 167 -110 174 -3 3
-17 21 -30 40 -51 74 -310 301 -310 273 0 -5 -4 -3 -8 2 -10 14 -55 33 -110
46 -40 10 -276 21 -284 14z"/>
</g>
</svg>
