<svg xmlns="http://www.w3.org/2000/svg" xmlns:xlink="http://www.w3.org/1999/xlink" width="197px" height="40px">
<path fill-rule="evenodd" fill="rgb(36, 64, 98)" class="color-primary"
 d="M89.957,28.540 L89.957,32.842 C89.957,34.542 89.081,35.391 87.329,35.391 L79.282,35.391 C77.530,35.391 76.654,34.542 76.654,32.842 L76.654,17.346 C76.654,15.647 77.530,14.797 79.282,14.797 L87.329,14.797 C89.081,14.797 89.957,15.647 89.957,17.346 L89.957,24.910 L88.674,26.195 L81.116,26.195 L81.116,31.965 L85.496,31.965 L85.496,28.540 L89.957,28.540 ZM85.496,23.157 L85.496,18.222 L81.116,18.222 L81.116,23.157 L85.496,23.157 ZM66.306,32.842 L66.306,18.773 L64.106,18.773 L64.106,14.797 L66.306,14.797 L66.306,9.210 L70.950,9.210 L70.950,14.797 L73.945,14.797 L73.945,18.773 L70.950,18.773 L70.950,31.415 L74.067,31.415 L74.067,35.391 L68.893,35.391 C67.168,35.391 66.306,34.542 66.306,32.842 ZM57.159,34.677 C56.086,34.854 55.006,35.031 53.920,35.207 C52.602,35.411 51.516,35.513 50.661,35.513 C48.963,35.513 48.114,34.664 48.114,32.965 L48.114,14.797 L52.738,14.797 L52.738,31.517 L57.159,31.415 L57.159,14.797 L61.804,14.797 L61.804,35.391 L57.159,35.391 L57.159,34.677 ZM40.088,18.691 L35.708,18.773 L35.708,35.391 L31.043,35.391 L31.043,14.797 L35.708,14.797 L35.708,15.551 C36.794,15.375 37.874,15.205 38.947,15.041 C40.278,14.824 41.371,14.715 42.227,14.715 C43.924,14.715 44.773,15.551 44.773,17.223 L44.773,35.391 L40.088,35.391 L40.088,18.691 ZM22.955,7.028 L27.620,7.028 L27.620,11.840 L22.955,11.840 L22.955,7.028 ZM14.725,19.650 C14.725,18.821 14.820,17.665 15.010,16.183 L10.895,32.475 L8.471,32.475 L4.336,16.183 C4.526,17.692 4.621,18.848 4.621,19.650 L4.621,35.391 L0.037,35.391 L0.037,3.480 L4.540,3.480 L9.551,21.118 C9.605,21.308 9.646,21.791 9.673,22.566 C9.673,22.226 9.714,21.743 9.795,21.118 L14.807,3.480 L19.309,3.480 L19.309,35.391 L14.725,35.391 L14.725,19.650 ZM27.580,35.391 L22.996,35.391 L22.996,14.797 L27.580,14.797 L27.580,35.391 Z"/>
<path fill-rule="evenodd" fill="rgb(118, 147, 60)" class="color-secondary"
 d="M98.565,40.000 L98.565,37.553 L197.000,37.553 L197.000,40.000 L98.565,40.000 ZM191.418,15.246 L187.731,15.328 L187.731,31.946 L183.066,31.946 L183.066,11.352 L187.731,11.352 L187.731,12.106 C188.695,11.930 189.653,11.753 190.603,11.576 C191.758,11.372 192.722,11.270 193.496,11.270 C195.194,11.270 196.043,12.106 196.043,13.778 L196.043,19.956 L191.418,19.956 L191.418,15.246 ZM177.056,31.946 L169.010,31.946 C167.258,31.946 166.382,31.096 166.382,29.397 L166.382,13.900 C166.382,12.201 167.258,11.352 169.010,11.352 L177.056,11.352 C178.808,11.352 179.684,12.201 179.684,13.900 L179.684,21.465 L178.401,22.750 L170.843,22.750 L170.843,28.520 L175.223,28.520 L175.223,25.095 L179.684,25.095 L179.684,29.397 C179.684,31.096 178.808,31.946 177.056,31.946 ZM175.223,19.712 L175.223,14.777 L170.843,14.777 L170.843,19.712 L175.223,19.712 ZM158.355,31.232 C155.204,31.790 153.439,32.068 153.059,32.068 C151.891,32.068 150.974,31.725 150.309,31.038 C149.643,30.352 149.310,29.417 149.310,28.235 L149.310,15.491 C149.310,13.819 149.908,12.657 151.103,12.004 C151.972,11.515 153.290,11.270 155.055,11.270 C155.449,11.270 156.019,11.284 156.766,11.311 C157.513,11.338 158.043,11.352 158.355,11.352 L158.355,0.035 L163.000,0.035 L163.000,31.946 L158.355,31.946 L158.355,31.232 ZM158.355,15.246 L155.483,15.246 C154.451,15.246 153.935,15.763 153.935,16.796 L153.935,26.644 C153.935,27.651 154.424,28.153 155.402,28.153 C155.632,28.153 156.617,28.079 158.355,27.929 L158.355,15.246 ZM141.325,15.246 L136.945,15.328 L136.945,31.946 L132.280,31.946 L132.280,11.352 L136.945,11.352 L136.945,12.106 C138.031,11.930 139.111,11.759 140.184,11.596 C141.515,11.379 142.608,11.270 143.464,11.270 C145.161,11.270 146.010,12.106 146.010,13.778 L146.010,31.946 L141.325,31.946 L141.325,15.246 ZM126.270,31.946 L118.224,31.946 C116.472,31.946 115.596,31.096 115.596,29.397 L115.596,13.900 C115.596,12.201 116.472,11.352 118.224,11.352 L126.270,11.352 C128.022,11.352 128.898,12.201 128.898,13.900 L128.898,21.465 L127.615,22.750 L120.057,22.750 L120.057,28.520 L124.437,28.520 L124.437,25.095 L128.898,25.095 L128.898,29.397 C128.898,31.096 128.022,31.946 126.270,31.946 ZM124.437,19.712 L124.437,14.777 L120.057,14.777 L120.057,19.712 L124.437,19.712 ZM100.480,0.035 L105.247,0.035 L105.247,27.684 L113.009,27.684 L113.009,31.946 L100.480,31.946 L100.480,0.035 Z"/>
</svg>
